<?xml version="1.0" encoding="UTF-8" standalone="no"?>
<!-- Created with Inkscape (http://www.inkscape.org/) -->

<svg
   xmlns:dc="http://purl.org/dc/elements/1.1/"
   xmlns:cc="http://creativecommons.org/ns#"
   xmlns:rdf="http://www.w3.org/1999/02/22-rdf-syntax-ns#"
   xmlns:svg="http://www.w3.org/2000/svg"
   xmlns="http://www.w3.org/2000/svg"
   xmlns:sodipodi="http://sodipodi.sourceforge.net/DTD/sodipodi-0.dtd"
   xmlns:inkscape="http://www.inkscape.org/namespaces/inkscape"
   width="210mm"
   height="272mm"
   viewBox="0 0 210 272"
   version="1.1"
   id="svg4710"
   inkscape:version="0.92.3 (2405546, 2018-03-11)"
   sodipodi:docname="txupon.svg">
  <defs
     id="defs4704" />
  <sodipodi:namedview
     id="base"
     pagecolor="#ffffff"
     bordercolor="#666666"
     borderopacity="1.0"
     inkscape:pageopacity="0.0"
     inkscape:pageshadow="2"
     inkscape:zoom="0.49497475"
     inkscape:cx="-371.50376"
     inkscape:cy="275.28286"
     inkscape:document-units="mm"
     inkscape:current-layer="layer1"
     showgrid="false"
     inkscape:window-width="1920"
     inkscape:window-height="1015"
     inkscape:window-x="0"
     inkscape:window-y="0"
     inkscape:window-maximized="1" />
  <metadata
     id="metadata4707">
    <rdf:RDF>
      <cc:Work
         rdf:about="">
        <dc:format>image/svg+xml</dc:format>
        <dc:type
           rdf:resource="http://purl.org/dc/dcmitype/StillImage" />
        <dc:title />
      </cc:Work>
    </rdf:RDF>
  </metadata>
  <g
     inkscape:label="Capa 1"
     inkscape:groupmode="layer"
     id="layer1"
     transform="translate(0,-25)">
    <path
       style="fill:#ff2a2a;stroke-width:1.09187853"
       d="m 99.456688,294.94021 c 2.729312,-2.52944 3.142352,-2.61426 5.315872,-1.09188 4.69828,3.29082 13.75664,1.11125 13.9177,-3.34879 0.02,-0.55326 0.9966,-2.15837 2.17028,-3.56694 1.91878,-2.30281 2.69744,-2.48354 7.72253,-1.79243 7.43528,1.02262 17.80315,-2.7941 20.80029,-7.6572 2.63806,-4.2805 2.57243,-11.02521 -0.15683,-16.11742 -1.20106,-2.24094 -2.18375,-5.30456 -2.18375,-6.80808 0,-2.98795 -3.44114,-7.10116 -5.9409,-7.10116 -3.11997,0 -2.89629,-2.32499 0.60716,-6.31083 2.74502,-3.12298 4.40525,-4.07014 7.18177,-4.09716 3.35732,-0.0327 3.61136,0.21573 3.61136,3.53137 0,4.86487 4.85412,10.26801 9.28097,10.33064 4.71348,0.0667 10.75754,-2.8443 14.06374,-6.77349 1.5732,-1.86964 2.86037,-3.82211 2.86037,-4.33881 0,-0.51671 1.65724,-0.67052 3.68277,-0.34183 2.1562,0.34991 3.99331,0.0951 4.43195,-0.61459 0.41205,-0.66672 2.36816,-1.21221 4.34689,-1.21221 2.32418,0 4.64031,-0.96626 6.54308,-2.7297 1.61997,-1.50133 3.41143,-2.72969 3.98102,-2.72969 2.05186,0 5.40314,-4.42585 5.40314,-7.13562 0,-1.52247 0.79976,-3.98872 1.77724,-5.48055 2.11092,-3.22166 1.45007,-9.53415 -1.31835,-12.59321 -3.47604,-3.841 -10.72572,-5.7374 -18.99511,-4.96884 -4.17,0.38756 -8.80517,1.26205 -10.30038,1.94331 -2.16346,0.98574 -3.48796,0.87354 -6.48683,-0.54952 -2.07256,-0.98349 -5.04523,-1.78816 -6.60594,-1.78816 -1.56072,0 -2.83766,-0.53544 -2.83766,-1.18984 0,-2.04274 -4.73618,-5.19526 -8.8866,-5.91513 -3.27328,-0.56773 -4.08381,-1.24237 -4.6013,-3.82989 -0.72007,-3.60038 -3.24431,-5.24424 -9.76532,-6.35952 -4.36095,-0.74586 -4.57233,-0.95682 -4.24161,-4.23335 0.19144,-1.89661 -0.15406,-4.38666 -0.76781,-5.53343 -0.73512,-1.37362 -0.74766,-2.45322 -0.0368,-3.16416 0.71093,-0.71092 0.33418,-2.81706 -1.10417,-6.1726 -1.20082,-2.80142 -1.74509,-5.09347 -1.20949,-5.09347 1.0459,0 5.08759,4.76859 5.76556,6.80249 0.22615,0.67846 1.22552,0.92106 2.22081,0.53912 1.64166,-0.62997 1.65956,-1.05359 0.19284,-4.56396 -1.95532,-4.67969 -1.13844,-4.79688 3.83066,-0.54953 2.07917,1.7772 4.13137,3.23128 4.56041,3.23128 1.52553,0 1.62382,-3.86778 0.17344,-6.82426 -1.64228,-3.3476 -1.03578,-3.86933 1.52324,-1.3103 1.88015,1.88015 4.83367,1.74091 5.4996,-0.25927 0.23744,-0.71314 -2.54708,-4.27539 -6.18781,-7.91611 -3.64073,-3.64075 -6.36331,-6.61953 -6.05017,-6.61953 1.23083,0 9.25755,5.80607 9.25755,6.69639 0,0.5207 0.9827,0.94677 2.18377,0.94677 4.21276,0 2.48735,-4.08379 -3.32644,-7.8732 -4.4233,-2.88309 -5.07117,-3.66012 -3.28442,-3.93929 1.22419,-0.19126 4.20012,0.76187 6.61317,2.11809 3.19736,1.797 4.71394,2.13925 5.5914,1.2618 1.64275,-1.64273 0.46189,-3.21121 -4.29962,-5.71093 l -4.02379,-2.11242 4.14051,0.1176 c 2.27729,0.0646 4.41987,0.56952 4.76127,1.12193 0.34142,0.55243 3.56853,3.17442 7.17137,5.82669 5.3598,3.94567 7.40755,4.82228 11.26468,4.82228 6.51569,0 9.2401,-3.46894 9.2401,-11.7652 v -6.01133 l -8.09681,-7.96653 c -6.96668,-6.85456 -15.52787,-12.47269 -19.00655,-12.47269 -0.55996,0 -1.62976,-0.73701 -2.37735,-1.63781 -1.11325,-1.34139 -1.03864,-1.63782 0.41224,-1.63782 0.97432,0 1.77151,-0.49136 1.77151,-1.09188 0,-0.60054 -2.21105,-1.09187 -4.91345,-1.09187 -5.56865,0 -6.57605,-1.57827 -1.63782,-2.565928 1.80159,-0.36032 3.27563,-1.227192 3.27563,-1.926386 0,-0.890851 -1.70446,-1.069402 -5.69594,-0.596673 l -5.69594,0.674613 3.05662,-2.83427 c 4.65284,-4.314332 2.05596,-5.768799 -3.98206,-2.230286 l -4.81873,2.823956 -2.3567,-3.187617 -2.35671,-3.187622 2.18562,-3.584771 c 2.73444,-4.484908 2.82024,-9.776594 0.19702,-12.150571 -2.48113,-2.245403 -4.28077,-2.266206 -9.44329,-0.109169 -3.76473,1.573005 -4.16669,1.556899 -5.46524,-0.218974 -1.05832,-1.447345 -1.10109,-2.398105 -0.17461,-3.881636 0.90867,-1.455014 0.90737,-2.476628 -0.005,-3.937566 -1.00483,-1.608975 -0.75123,-2.435535 1.37517,-4.482117 3.0503,-2.935815 3.27535,-5.207808 0.85775,-8.659425 -1.62391,-2.318445 -1.60432,-2.607627 0.27296,-4.029799 1.11236,-0.842661 2.58012,-1.54774 3.26172,-1.566839 2.12016,-0.0594 4.99647,-5.51935 4.32241,-8.205003 -0.95569,-3.807797 -7.58724,-8.999704 -14.00835,-10.96729 -12.65337,-3.8773 -41.280762,-3.108772 -59.543672,1.598502 -17.36797,4.476592 -30.82465,15.229716 -30.82465,24.631685 0,3.910837 4.33338,7.878707 10.22453,9.362116 3.64045,0.916681 5.02767,1.835864 5.27375,3.494497 0.21488,1.448102 1.69666,2.723477 4.15552,3.576685 2.10188,0.729329 3.70818,1.847922 3.56953,2.485765 -0.13861,0.637838 0.96692,2.118533 2.45674,3.290427 1.48983,1.171895 2.70877,3.165529 2.70877,4.4303 0,1.839948 -0.67152,2.299583 -3.35963,2.299583 -2.28847,0 -4.42018,1.060547 -6.68592,3.326293 -2.7332,2.733195 -3.22388,3.957344 -2.75195,6.865547 0.56337,3.471556 0.50327,3.530963 -3.14098,3.105521 -5.2866,-0.617177 -4.59488,1.198639 1.47108,3.861784 l 5.18644,2.276988 -5.25822,0.10873 c -5.66831,0.11733 -9.93635,1.76619 -8.90236,3.43925 0.35254,0.5704 1.81134,1.03709 3.24178,1.03709 1.43045,0 2.90449,0.49136 3.27565,1.09188 0.37113,0.60055 0.002,1.09189 -0.81876,1.09189 -0.82145,0 -2.44733,0.72768 -3.61305,1.61706 -1.75711,1.3406 -1.85639,1.79002 -0.58068,2.62867 0.84635,0.55639 2.32038,0.78253 3.27564,0.50257 0.95527,-0.27998 -0.12217,0.52271 -2.3944,1.78374 -2.27217,1.26104 -3.84004,2.76393 -3.48417,3.33976 0.3559,0.57584 3.44331,1.10347 6.86095,1.17255 5.77765,0.1167 5.92557,0.18145 2.10724,0.92194 -4.84326,0.93928 -5.65858,1.57512 -4.82035,3.75947 0.4589,1.1959 1.6488,1.45917 4.50238,0.9961 6.69846,-1.08702 4.2124,1.27699 -2.73047,2.59643 -6.76265,1.2852 -10.21086,3.10483 -9.14666,4.82675 0.32909,0.53249 2.16622,0.96998 4.08253,0.97223 l 3.48415,0.003 -3.60265,2.1965 c -5.42776,3.30924 -3.45581,4.51778 6.14705,3.76736 7.71793,-0.60317 8.20825,-0.52051 6.25489,1.05426 -1.16569,0.93982 -2.56389,1.70876 -3.10705,1.70876 -0.54318,0 -2.48116,1.06351 -4.30661,2.36332 -2.70233,1.92424 -3.03793,2.58355 -1.80636,3.54863 0.83194,0.6519 1.60254,2.90496 1.71248,5.00683 0.10989,2.10187 0.3556,5.0412 0.54592,6.53188 0.28788,2.2545 -0.29663,2.92016 -3.47549,3.95812 -3.29097,1.07455 -3.8676,1.78002 -4.15301,5.08101 -0.28273,3.26993 -0.80754,3.92844 -3.57136,4.48121 -2.54092,0.50819 -3.38627,1.3798 -3.91834,4.04021 -0.69188,3.45942 -0.91872,3.6383 -6.02754,4.75369 -3.36107,0.73381 -4.80669,3.951 -3.15887,7.02998 0.8554,1.59833 0.72015,2.45002 -0.55745,3.51032 -3.55249,2.94803 -6.2655399,10.8397 -3.72664,10.8397 0.60053,0 1.09188,-0.6275 1.09188,-1.39447 0,-0.76696 1.44635,-2.97802 3.21408,-4.91346 2.6211,-2.86968 4.04047,-3.51897 7.69267,-3.51897 h 4.47853 l -0.79216,4.09455 c -0.43571,2.25201 -0.82647,6.09475 -0.8684,8.53941 -0.0462,2.69264 -0.82948,5.19841 -1.987,6.35629 -1.05092,1.0513 -1.91078,2.8477 -1.91078,3.99203 0,2.88933 -4.71287,5.7818 -7.86266,4.82567 -5.8772499,-1.78406 -10.5484199,-8.72315 -8.4772499,-12.59314 1.57056,-2.93465 3.12111,-2.65334 7.2079699,1.30781 2.18673,2.11947 4.17883,3.17056 5.23841,2.76397 2.37733,-0.91227 2.13578,-4.36815 -0.47014,-6.72649 -1.69889,-1.53749 -1.90184,-2.30782 -0.91977,-3.49113 0.88458,-1.06587 0.91652,-1.86198 0.10723,-2.67132 -0.80935,-0.80935 -1.59319,-0.23443 -2.63015,1.92911 -1.13424,2.36655 -2.34466,3.15242 -5.2137899,3.38507 -10.26873,0.83277 -10.21067,10.34124 0.10191,16.68664 4.3252099,2.66134 5.2751399,3.80983 5.2751399,6.37784 0,2.11744 1.46625,4.79772 4.52641,8.27424 3.87845,4.40619 4.30772,5.36097 2.99872,6.66997 -1.30903,1.30904 -2.22374,1.28791 -6.38999,-0.14749 -3.61264,-1.24466 -5.5057899,-1.38197 -7.3662199,-0.53431 -5.41138,2.46559 -2.064,5.46266 6.2310799,5.57899 2.10188,0.0295 4.97551,0.69356 6.38585,1.47572 l 2.56424,1.42213 -3.35512,1.38972 c -4.29557,1.77929 -8.18193,5.68054 -10.4770699,10.51718 -1.49443,3.14927 -1.59072,4.48422 -0.55079,7.63524 0.69314,2.10027 2.4000899,4.56551 3.7932499,5.47833 1.39315,0.91284 3.68318,3.34203 5.08899,5.39823 3.12986,4.5779 5.71098,5.69443 16.16617,6.9931 7.95705,0.98837 14.88233,0.33903 20.92495,-1.96199 3.44586,-1.31217 14.80736,2.35758 17.11804,5.52913 1.56321,2.14559 6.76234,2.70257 6.76234,0.72445 0,-2.09656 9.67205,-0.38413 12.42197,2.1993 3.20525,3.01118 5.16905,2.91447 8.78027,-0.4323 z m -28.8454,-6.45797 c -3.30292,-0.91527 -7.11086,-1.9793 -8.46206,-2.36451 -1.35121,-0.3852 -2.45673,-1.34696 -2.45673,-2.13726 0,-0.79028 -0.89606,-1.7213 -1.99126,-2.06889 -2.40942,-0.76472 -6.74376,-4.66733 -6.74376,-6.07202 0,-0.55684 2.08821,0.39149 4.64049,2.10733 2.55225,1.71586 6.41861,3.8583 8.59185,4.76098 5.69276,2.36455 22.67354,4.45281 30.86274,3.79546 9.811982,-0.78761 21.834712,-5.58642 26.355792,-10.51977 4.45537,-4.86164 4.08175,-5.66717 -0.87498,-1.88649 -2.04786,1.56199 -4.72996,2.83998 -5.96022,2.83998 -1.23027,0 -2.53923,0.78798 -2.90881,1.75107 -0.41203,1.07374 -1.35549,1.48883 -2.43896,1.07306 -0.97187,-0.37293 -2.31892,-0.24228 -2.99347,0.29035 -7.008022,5.53359 -31.938002,5.35669 -43.104192,-0.30586 -10.28762,-5.21701 -13.56017,-12.99335 -8.58088,-20.39021 4.08163,-6.06333 7.13823,-6.93127 14.63943,-4.15695 3.48617,1.28935 10.02358,2.99686 14.52757,3.79447 4.50401,0.79758 8.31191,1.4762 8.46205,1.50801 0.15014,0.0319 0.27297,1.74559 0.27297,3.80836 0,6.14667 1.71727,9.35204 5.01034,9.35204 2.588672,0 2.831222,-0.33676 2.393,-3.32253 -0.34754,-2.36787 -0.0917,-3.17058 0.890422,-2.7937 10.15687,3.89753 19.8638,-1.6979 14.06374,-8.1069 -1.52576,-1.68597 -1.23133,-1.99866 3.54861,-3.76868 2.86683,-1.06159 7.87804,-3.34321 11.13602,-5.07028 5.87499,-3.11433 5.95564,-3.12443 9.8269,-1.23077 3.16983,1.55058 3.9698,2.60551 4.25711,5.61403 0.31312,3.27894 -0.35706,4.37688 -5.83173,9.55394 -7.10789,6.72152 -5.90187,7.5192 3.1381,2.07563 7.00328,-4.21714 8.04342,-3.70217 6.88914,3.41081 -0.75753,4.66814 -3.13414,7.51607 -8.60035,10.30592 -5.12241,2.61437 -7.09419,2.61055 -7.92761,-0.0154 -1.15012,-3.6237 -3.96158,-3.67987 -8.13689,-0.1626 -5.46906,4.60716 -12.61513,7.92405 -20.28396,9.41495 -8.317542,1.61704 -24.419532,1.07531 -32.210412,-1.08363 z m -39.30761,-5.53988 c 0,-0.9008 0.43117,-1.63781 0.95819,-1.63781 0.52698,0 1.56984,0.73701 2.31743,1.63781 1.13563,1.36835 0.97797,1.63781 -0.95819,1.63781 -1.33204,0 -2.31743,-0.69642 -2.31743,-1.63781 z m 13.71275,-1.05716 c 1.16571,-0.88168 3.10217,-1.6013 4.30323,-1.59913 1.93035,0.003 1.86701,0.18504 -0.54595,1.56442 -3.73773,2.13668 -6.57094,2.16285 -3.75728,0.0348 z m -22.44779,0.65847 c 0,-0.51956 1.02808,-2.25163 2.28465,-3.84906 4.04416,-5.14134 13.51373,-7.68093 18.56341,-4.97843 1.17841,0.63064 1.85413,1.61337 1.50158,2.18375 -1.02622,1.66047 -3.96631,1.19997 -5.57812,-0.8737 -1.35599,-1.74452 -1.60437,-1.75834 -2.85426,-0.15889 -0.75298,0.96355 -2.47268,2.10219 -3.82159,2.53033 -1.34888,0.42813 -2.45253,1.23664 -2.45253,1.79669 0,0.56007 -0.98269,1.0183 -2.18376,1.0183 -1.21318,0 -2.18374,0.72792 -2.18374,1.63783 0,0.90079 -0.73702,1.6378 -1.63781,1.6378 -0.9008,0 -1.63783,-0.42507 -1.63783,-0.94462 z m 103.728442,-1.23912 c 0,-0.60052 0.49135,-1.09189 1.09188,-1.09189 0.60054,0 1.09188,0.49137 1.09188,1.09189 0,0.60053 -0.49134,1.09188 -1.09188,1.09188 -0.60053,0 -1.09188,-0.49135 -1.09188,-1.09188 z M 21.734988,274.4803 c 0.88905,-1.3512 4.32171,-3.85161 7.62817,-5.55647 5.31143,-2.73868 6.71711,-3.01161 12.06756,-2.34312 4.91959,0.61467 6.16989,1.19274 6.66367,3.08091 0.3343,1.27837 0.0605,2.82412 -0.60849,3.435 -0.84482,0.77147 -0.99418,0.71526 -0.48903,-0.18406 1.14954,-2.04663 -8.49522,-3.01902 -15.1571,-1.52817 -3.16185,0.70758 -6.61747,2.24641 -7.67919,3.4196 -2.65042,2.92867 -4.41097,2.69373 -2.42559,-0.32369 z m -7.86297,-1.83902 c -2.84725,-5.32013 0.6283,-12.64519 8.06866,-17.00554 4.06225,-2.38063 5.9318,-2.72003 14.98259,-2.72003 13.25852,0 14.59941,0.86546 11.61685,7.49796 l -2.14424,4.76828 -5.40805,-0.71739 c -7.91899,-1.05049 -17.60038,1.9014 -21.44589,6.53893 -3.52069,4.24584 -4.17327,4.43433 -5.66992,1.63779 z m 80.95571,-5.61525 c -0.41366,-4.4071 1.4024,-3.30045 2.61141,1.59129 0.59972,2.42654 0.43028,3.03093 -0.74164,2.64562 -0.83541,-0.27468 -1.67682,-2.1813 -1.86977,-4.23691 z m 3.30732,-3.57016 c -4.86634,-3.59024 -3.10315,-4.4535 2.225552,-1.08963 3.63624,2.29545 4.8424,2.5719 6.97727,1.59919 1.54517,-0.70402 2.58105,-2.11547 2.58105,-3.51687 0,-1.95696 0.26858,-2.11794 1.63781,-0.98158 6.5603,5.44455 -6.27728,9.25988 -13.421682,3.98889 z m 4.246532,-2.22356 c -0.96657,-1.16466 -0.87223,-1.65658 0.41226,-2.14951 2.26982,-0.871 4.94132,0.28533 4.94132,2.13882 0,1.96396 -3.72632,1.97143 -5.35358,0.0116 z m -27.705582,-6.1985 c -2.26842,-0.62994 -5.81156,-2.62671 -7.87365,-4.43725 -3.04457,-2.67317 -3.63696,-3.85352 -3.15167,-6.27989 0.3906,-1.95309 0.0159,-3.47081 -1.082,-4.38194 -1.43409,-1.19018 -1.92123,-0.8156 -3.33287,2.56296 -2.47763,5.92981 -9.27722,8.60667 -21.29227,8.38237 -9.96257,-0.18599 -14.75744,-2.00883 -13.55141,-5.15172 0.41754,-1.08808 1.41111,-1.48988 2.69461,-1.08971 1.11824,0.34867 3.1387,0.91039 4.48989,1.2483 2.40614,0.6017 2.41081,0.58484 0.22714,-0.81892 -8.59275,-5.52378 -12.64462,-10.41804 -14.09614,-17.02675 -0.99977,-4.55188 0.94067,-5.35348 5.18117,-2.14039 1.92578,1.4592 4.72978,3.24876 6.23111,3.97682 l 2.72969,1.32375 -2.54134,-2.21599 c -1.39774,-1.21879 -3.85357,-3.17187 -5.45739,-4.34016 -4.14338,-3.01825 -2.15006,-4.12685 2.20351,-1.22553 l 3.61146,2.40679 -3.82156,-3.30588 c -3.31303,-2.86595 -3.56359,-3.40529 -1.88291,-4.05298 1.44283,-0.55604 1.6387,-1.10853 0.7659,-2.16023 -0.81436,-0.98122 -0.82288,-1.62934 -0.0279,-2.12068 1.07529,-0.66457 1.31531,-0.10571 1.58883,3.69936 0.0612,0.8516 0.65194,1.7286 1.31274,1.94886 0.79655,0.26552 1.41198,-3.38406 1.8261,-10.82932 0.70301,-12.63905 4.55921,-27.13824 9.004,-33.85479 1.50179,-2.26936 2.35505,-4.12608 1.89612,-4.12603 -1.57158,5e-5 -6.99014,7.71381 -9.26676,13.19199 l -2.27568,5.47586 -5.01883,-0.32595 c -4.20102,-0.27284 -5.074,-0.71344 -5.3574,-2.70382 -0.26999,-1.89612 0.28305,-2.44915 2.72969,-2.72969 2.30692,-0.26452 3.57067,-1.38026 5.09291,-4.49643 1.45766,-2.98398 2.91004,-4.32172 5.18642,-4.77698 2.70143,-0.5403 3.16175,-1.14372 3.16175,-4.14462 0,-3.16271 0.44305,-3.64501 4.45183,-4.84606 4.3946,-1.31666 4.44279,-1.38715 3.75027,-5.48622 -0.62563,-3.70304 -0.42796,-4.22572 1.82647,-4.82947 4.95305,-1.32646 5.66702,-0.94817 3.74549,1.98446 -0.96986,1.4802 -1.76339,3.49884 -1.76339,4.48587 0,1.75955 2.01606,1.71877 6.85647,-0.13867 1.22061,-0.46839 1.47337,0.0483 1.06604,2.17911 -0.68921,3.60534 1.01061,3.5859 5.79883,-0.0662 l 3.74872,-2.85925 -0.007,4.77008 c -0.007,4.15848 -0.42842,5.00994 -3.29459,6.64093 -5.86695,3.33865 -5.31264,7.63558 1.16864,9.05911 6.49796,1.42719 9.36409,-1.75749 6.46195,-7.18019 -0.78698,-1.47043 -0.77031,-2.78457 0.0547,-4.32631 1.5529,-2.9016 3.10975,-1.86331 2.4422,1.62877 -0.68528,3.58484 2.45606,4.99307 4.65637,2.08738 1.48284,-1.95821 1.55215,-1.93684 1.58538,0.48904 0.0498,3.64048 3.15666,2.66145 5.51287,-1.73723 l 1.91124,-3.56797 0.73591,4.90736 c 0.85316,5.68931 2.18942,7.03527 3.86899,3.89696 1.3881,-2.59445 3.2916,-2.92782 3.2916,-0.57652 0,2.56065 1.96409,1.92401 3.58018,-1.16046 l 1.46617,-2.79829 1.27498,2.79829 c 1.570292,3.44641 2.812322,3.54377 4.356712,0.34157 0.94331,-1.95596 1.19989,-2.06726 1.25873,-0.54595 0.0782,2.02044 2.25766,2.73996 2.25766,0.74534 0,-0.66858 0.93102,-0.86997 2.18375,-0.47237 1.50328,0.47712 2.18376,0.19621 2.18376,-0.90147 0,-0.87703 0.76254,-1.8872 1.69452,-2.24484 0.95124,-0.36503 1.40826,-0.18705 1.0419,0.40573 -0.68586,1.10974 3.21318,7.27098 5.98137,9.45175 1.39451,1.09858 1.41593,1.84262 0.15357,5.33362 -1.23249,3.40837 -1.22973,4.20726 0.0172,4.99735 0.81633,0.51725 1.80469,0.94794 2.19634,0.95714 1.03497,0.0241 3.10948,6.4378 3.10948,9.61322 0,1.49563 0.85333,3.34332 1.89629,4.10597 1.79174,1.31015 1.78241,1.51243 -0.16923,3.66898 -1.89157,2.09015 -1.91984,2.44333 -0.33566,4.19384 1.28621,1.42125 1.44396,2.42234 0.61508,3.90346 -1.37971,2.46541 -0.46257,3.46603 3.17691,3.46603 4.08454,0 4.13284,1.99176 0.15809,6.51874 -4.41987,5.03395 -12.75609,9.3135 -18.14197,9.3135 -8.66827,0 -16.680232,-4.34741 -16.680232,-9.05093 0,-2.00125 0.14957,-2.021 2.69129,-0.35561 1.48019,0.96987 3.298242,1.76339 4.040112,1.76339 0.74188,0 -0.71488,-1.33814 -3.237212,-2.97366 -4.58858,-2.97531 -6.27436,-5.58126 -2.67529,-4.13561 4.744912,1.90589 4.948442,1.7605 1.36728,-0.97666 -2.71231,-2.07307 -3.89889,-3.90248 -4.09431,-6.31241 -0.28277,-3.4867 -1.96084,-6.34735 -3.72336,-6.34735 -0.54813,0 -0.47064,0.98279 0.17222,2.18396 0.64284,1.20119 1.40678,4.76342 1.69762,7.91611 0.97287,10.54576 1.57715,12.4008 5.13785,15.77231 4.915812,4.6546 10.147002,6.1553 16.496452,4.73234 7.727,-1.73165 16.00605,-5.13949 18.75112,-7.71835 4.38917,-4.1234 11.75347,-0.5128 8.07993,3.96149 -2.51508,3.06329 -13.81633,9.99459 -20.52316,12.58731 -13.66014,5.28066 -35.866362,7.86623 -45.229032,5.2662 z m -0.8238,-11.67205 c -0.0612,-1.4444 -2.62337,-4.24566 -5.07991,-5.55401 -3.48373,-1.85545 -4.63697,-1.4793 -1.43663,0.46857 l 2.72971,1.66146 -3.27565,-0.62316 c -3.14382,-0.59811 -3.09987,-0.51295 1.09187,2.11585 4.53309,2.84284 6.02981,3.32701 5.97061,1.93129 z m -13.28618,-9.22637 c 3.22849,-3.2285 0.57496,-7.42478 -4.6951,-7.42478 -3.79676,0 -6.00532,1.6724 -6.00532,4.54749 0,3.594 7.86803,5.70968 10.70042,2.87729 z m -9.09216,-2.01321 c -0.97482,-1.57729 1.51408,-4.31969 3.92039,-4.31969 2.392,0 3.62264,1.70782 2.79147,3.87387 -0.69851,1.82026 -5.65878,2.14974 -6.71186,0.44582 z m 17.77258,-5.10954 c 4.7502,-0.58951 4.54198,-2.48578 -0.27297,-2.48578 h -3.82156 v -9.19167 c 0,-5.05541 -0.30457,-9.98535 -0.67681,-10.95539 -0.58462,-1.52348 0.10688,-1.6925 5.07677,-1.24088 l 5.75353,0.52285 -4.16231,-4.26259 c -2.28926,-2.34443 -4.5738,-4.00827 -5.07674,-3.69744 -0.50294,0.31083 -0.91444,-0.26476 -0.91444,-1.27911 0,-1.53077 0.78875,-1.74782 4.64048,-1.27694 2.55225,0.31202 5.58094,0.95077 6.73036,1.41943 1.39613,0.56924 1.84735,0.4596 1.35914,-0.3303 -0.40189,-0.65033 -2.69358,-1.51403 -5.09256,-1.91936 -4.17503,-0.70534 -5.46389,-1.91871 -3.3958,-3.19683 0.53129,-0.32838 1.19882,-1.95425 1.4834,-3.61305 0.28454,-1.65882 0.90836,-3.99873 1.3862,-5.1998 0.67477,-1.69602 0.0941,-1.46228 -2.59963,1.04654 -1.90766,1.77665 -4.0266,5.09323 -4.70879,7.37016 -0.68219,2.27695 -1.40825,4.1399 -1.61346,4.1399 -0.20521,0 -1.35578,-0.9827 -2.55687,-2.18377 -2.82419,-2.82417 -7.09394,-2.79104 -9.09835,0.0706 -3.33569,4.76236 0.63978,8.4208 7.97987,7.3435 2.97131,-0.43609 3.22059,-0.21272 3.21468,2.8808 -0.003,1.84445 0.11605,4.09055 0.26577,4.99136 0.14969,0.9008 -0.14025,3.5375 -0.6443,5.85932 -0.92053,4.2403 0.93173,16.16297 2.4552,15.8035 0.40732,-0.0961 2.33746,-0.3729 4.28919,-0.6151 z m -15.52796,-31.26268 c -2.67077,-1.95289 -1.4401,-5.07135 2.00136,-5.07135 3.04077,0 4.59803,2.8443 2.76593,5.05186 -1.55291,1.87113 -2.23125,1.87391 -4.76729,0.0196 z m 3.51729,21.09972 c 4.04024,-1.62396 3.30054,-6.2761 -1.30379,-8.19992 -4.57549,-1.91174 -6.95205,-1.15693 -7.86976,2.49954 -0.53149,2.11766 -0.0848,3.22722 1.92021,4.76875 2.91998,2.24512 3.72752,2.34884 7.25334,0.93163 z m -6.8473,-2.57752 c -1.76577,-1.29116 -1.85912,-1.78368 -0.62094,-3.27563 0.80155,-0.96576 2.07405,-1.75597 2.82777,-1.75597 2.04458,0 4.1557,3.0138 3.43206,4.89955 -0.79096,2.06123 -2.93199,2.11137 -5.63889,0.13205 z m 68.811402,-0.56606 c 5.24615,-0.86548 7.09721,-1.89454 7.09721,-3.94562 0,-2.45595 -3.89078,-4.04779 -5.41238,-2.21438 -3.25951,3.92746 -17.29774,6.24483 -23.513722,3.88151 -1.5978,-0.60747 -2.58997,-0.64653 -2.24501,-0.0884 1.59405,2.57926 14.872912,3.88476 24.073902,2.36686 z m 39.33283,33.563 c -2.94991,-1.34404 -4.24281,-4.5221 -4.26826,-10.49163 -0.0115,-2.80631 -0.38163,-3.42949 -1.70767,-2.87879 -5.42415,2.25259 -8.62849,0.76658 -9.02531,-4.18539 -0.24799,-3.09475 -1.94808,-4.28582 -1.94808,-1.36485 0,2.26549 -2.12105,2.06189 -2.84367,-0.27297 -0.32525,-1.05094 -1.05102,-2.77064 -1.6128,-3.82159 -0.85693,-1.60308 -0.5364,-1.91464 1.99049,-1.93475 6.80705,-0.0542 18.40414,-7.8361 20.99334,-14.08695 0.72952,-1.76123 1.98177,-3.45371 2.78279,-3.76109 2.07696,-0.79699 9.52868,1.44145 10.86552,3.26394 0.95623,1.30362 2.07207,1.20333 7.37766,-0.66302 7.4242,-2.61166 17.16281,-2.8515 21.64609,-0.53309 2.56534,1.32658 3.22142,2.38894 3.22142,5.21642 0,1.95284 -0.80958,4.70644 -1.79906,6.11912 -1.71909,2.45434 -2.14376,2.52747 -9.55394,1.64543 -12.9737,-1.54426 -19.68883,-1.01041 -25.48666,2.02614 -6.91024,3.61915 -6.97966,6.43111 -0.28422,11.51121 2.7024,2.0504 5.05663,4.10177 5.2316,4.55857 0.55758,1.45564 -5.04199,7.29103 -8.75034,9.11886 -4.32167,2.1301 -3.47264,2.06366 -6.8289,0.53443 z m 10.07468,-4.76331 c 1.3512,-0.94853 2.45673,-2.5099 2.45673,-3.46971 0,-1.55928 -0.20349,-1.57037 -1.9108,-0.10411 -3.23326,2.77688 -5.94514,3.34124 -5.52756,1.15027 0.19991,-1.04881 1.46395,-2.06396 2.80903,-2.25587 1.34505,-0.19189 2.44556,-0.80607 2.44556,-1.36485 0,-1.70253 -2.88611,-1.13705 -5.61139,1.09942 -2.09849,1.72209 -2.35295,2.4833 -1.36878,4.09454 1.62398,2.65876 3.74745,2.92794 6.70721,0.85025 z m -156.565332,3.85864 c -2.2530999,0 -3.5223599,-0.44392 -3.1219099,-1.09189 0.9351,-1.51296 3.7701599,-1.28607 7.6431799,0.61166 1.80159,0.88278 2.37559,1.35194 1.27555,1.04265 -1.10008,-0.30933 -3.70863,-0.56242 -5.79682,-0.56242 z M 177.84851,235.6788 c -1.07282,-1.07286 -3.7981,-3.09245 -6.05615,-4.488 -4.33033,-2.67628 -4.76116,-4.80739 -1.08221,-5.35322 2.62066,-0.38879 13.4565,7.80815 13.4565,10.1794 0,2.23392 -3.95787,2.02208 -6.31814,-0.33818 z m 9.90887,-1.59799 c -3.61841,-1.5379 -14.50952,-9.60426 -14.50952,-10.74627 0,-0.40896 1.4841,-0.96141 3.29798,-1.22762 3.46726,-0.50889 5.47029,0.5185 10.59207,5.4329 1.71525,1.6458 4.08231,3.58112 5.26011,4.3007 1.85039,1.1305 1.91885,1.46215 0.50365,2.44001 -2.0048,1.38525 -1.35581,1.41044 -5.14429,-0.19972 z m 5.02498,-4.99021 c -2.40817,-1.01714 -10.05197,-7.85896 -9.45128,-8.45965 0.2671,-0.26709 5.00755,0.56895 10.53433,1.85789 l 10.04868,2.34355 -2.42089,2.57692 c -2.39761,2.55215 -5.3156,3.11535 -8.71084,1.68129 z m -61.49337,-11.88581 c -2.43399,-2.62497 -2.56073,-3.15221 -1.13606,-4.72646 2.1094,-2.33085 2.02426,-3.89169 -0.30724,-5.63259 -1.29171,-0.96449 -1.92965,-2.97677 -1.969,-6.21086 -0.0452,-3.71534 -0.65501,-5.26766 -2.7297,-6.94877 -1.97031,-1.5965 -2.72095,-3.34994 -2.85996,-6.68061 -0.10366,-2.48378 -0.62852,-7.41043 -1.16635,-10.94809 l -0.97786,-6.43213 2.29924,2.88354 c 2.63979,3.31059 4.93101,3.75799 4.98163,0.97272 0.0714,-3.93188 3.03135,1.87705 3.79846,7.45465 l 0.73924,5.37492 h 4.19398 c 5.79917,0 9.97645,1.75594 9.73858,4.09367 -0.56019,5.50533 0.0301,6.82498 3.05961,6.84003 5.19718,0.0259 7.91612,1.20812 7.91612,3.44231 0,5.33446 -6.13194,11.98384 -15.81606,17.15065 -5.59325,2.98418 -6.46288,2.9278 -9.76463,-0.63298 z M 13.186918,209.12924 c -2.06006,-2.27636 -2.05488,-2.29194 0.63854,-1.91078 1.51643,0.21459 2.87636,1.22804 3.07971,2.29507 0.49227,2.58273 -1.1905,2.40882 -3.71825,-0.38429 z m 47.14084,-30.03217 c -3.86548,-1.48331 -0.3302,-6.63193 3.67986,-5.3592 2.14625,0.68119 3.02757,3.77472 1.50822,5.29404 -0.90625,0.9063 -2.92992,0.9317 -5.18808,0.0651 z m 21.72657,-29.24475 c -7.49509,-3.64103 -7.54488,-3.69301 -3.00401,-3.13495 3.10399,0.38145 5.443,0.0265 7.13626,-1.08292 2.28923,-1.49997 2.75024,-1.46303 5.05745,0.40527 3.06226,2.47964 7.19377,2.62015 11.470132,0.39001 3.62567,-1.89077 7.48925,-1.14024 6.99387,1.35863 -0.58055,2.92846 -7.46484,5.76639 -13.988212,5.76639 -4.64408,0 -7.80934,-0.85758 -13.66549,-3.70243 z m 9.34091,-7.14486 c -0.76304,-1.42572 -0.77551,-3.04584 -0.0385,-4.98454 0.60064,-1.57975 1.09205,-4.35335 1.09205,-6.16358 0,-3.13185 0.17192,-3.2567 3.5486,-2.5771 6.764802,1.36154 7.370192,1.73262 7.370192,4.51812 0,8.07333 -8.911482,14.9265 -11.972402,9.2071 z m -15.12185,-3.88574 c -0.18879,-2.98785 0.24688,-7.54016 0.96814,-10.11628 1.12132,-4.00495 1.64585,-4.59029 3.61887,-4.03848 6.32721,1.76961 8.31196,3.03194 8.28884,5.27191 -0.0377,3.64999 -3.84853,11.1343 -6.68211,13.12319 -4.21028,2.95524 -5.80821,1.86126 -6.19374,-4.24034 z m 91.808512,-2.04185 c -8.6687,-8.14952 -16.77436,-12.56015 -30.32009,-16.49854 -5.4048,-1.57145 -11.21275,-3.62022 -12.90657,-4.55289 -1.69381,-0.93266 -4.02838,-1.44764 -5.18793,-1.14442 -1.24486,0.32555 -1.83112,0.10293 -1.43152,-0.54367 0.37221,-0.60226 2.0926,-0.8872 3.82308,-0.63321 1.73049,0.25397 3.14633,0.0555 3.14633,-0.44099 0,-0.97029 -1.43988,-1.25738 -4.91345,-0.97966 -1.24682,0.0997 -1.71529,-0.19772 -1.09188,-0.69317 0.60054,-0.47728 1.09188,-2.09613 1.09188,-3.59747 0,-2.5373 0.42327,-2.75499 6.00533,-3.08857 6.81939,-0.40753 20.00252,1.40585 27.29697,3.75476 9.04872,2.91381 20.64817,9.33404 24.43327,13.52371 5.05613,5.59651 7.33152,14.94649 4.63783,19.05759 -2.9937,4.56896 -6.2979,3.6256 -14.58325,-4.16347 z m -59.8028,5.85289 c -0.37222,-0.60228 -0.34544,-3.30468 0.0595,-6.00534 l 0.73636,-4.91024 h 5.38965 c 2.9643,0 6.91059,-0.78652 8.76953,-1.74782 l 3.3799,-1.74779 -0.72382,3.61908 c -0.87393,4.36966 -5.70004,9.69711 -8.80543,9.72016 -1.23884,0.009 -2.98946,0.49302 -3.89026,1.07515 -2.12413,1.37274 -4.06585,1.37146 -4.91545,-0.003 z m -38.721282,-2.10877 c -1.7656,-3.29907 -1.3548,-4.4393 1.59942,-4.4393 2.30507,0 2.7297,0.50953 2.7297,3.27564 0,3.79423 -2.55386,4.48072 -4.32912,1.16366 z m -3.10352,-13.0675 c -0.18451,-3.23291 0.0922,-6.30567 0.61484,-6.82834 0.53916,-0.53914 2.50721,-0.40757 4.54881,0.30415 3.34303,1.16539 3.5546,1.52484 2.98041,5.06321 -0.71971,4.435 -3.66012,8.12646 -6.10366,7.66265 -1.24145,-0.23562 -1.79618,-1.92165 -2.0404,-6.20167 z m 27.96965,-11.62553 c -2.97189,-1.01263 -5.39053,-2.64499 -6.02461,-4.06609 -0.88949,-1.99342 -1.83189,-2.32814 -5.87513,-2.08678 -3.75128,0.22393 -4.4537,0.0183 -3.17787,-0.93051 1.24149,-0.92325 1.30587,-1.35253 0.26616,-1.77405 -0.75441,-0.30583 -1.09393,-1.00545 -0.75447,-1.55469 0.33945,-0.54924 -0.51735,-1.0374 -1.90399,-1.08482 -1.38664,-0.0474 -1.93459,-0.32482 -1.21766,-0.61648 0.71693,-0.29166 1.00465,-1.3091 0.63938,-2.26098 -0.54994,-1.43313 -0.11696,-1.594858 2.51807,-0.94061 1.75019,0.43454 3.35281,1.26561 3.56135,1.84682 0.59489,1.65806 3.44242,-1.2206 3.44242,-3.480061 0,-2.324086 5.56316,-6.751121 10.59581,-8.43189 4.123512,-1.377148 9.645002,-0.157479 13.689482,3.023912 l 2.70045,2.124162 1.19776,-2.628791 c 3.15025,-6.91405 12.41175,-7.802678 19.71507,-1.891613 4.00315,3.240013 5.36055,7.781339 2.60079,8.701243 -0.75067,0.250238 -1.36484,-0.27933 -1.36484,-1.176797 0,-0.897464 -1.54217,-2.929378 -3.42702,-4.515387 -4.63231,-3.897817 -10.50384,-3.54991 -12.91496,0.765255 -1.42837,2.556346 -1.45427,3.346865 -0.17886,5.459397 1.16049,1.92217 1.17218,2.16739 0.0527,1.10536 -2.24112,-2.126128 -3.22548,-1.611718 -2.17964,1.13905 2.01346,5.29581 -2.84759,11.37357 -10.96355,13.7077 -5.13676,1.4773 -5.422402,1.46605 -10.996832,-0.43335 z m 13.906782,-6.44767 c 3.41012,-3.41012 3.40743,-7.13496 -0.007,-10.820084 -6.52591,-7.04159 -15.279102,-5.788933 -17.299422,2.475704 -2.09352,8.56423 10.847892,14.80373 17.307232,8.34438 z m -4.32785,-5.62583 c -2.00439,-0.76915 -2.30958,-4.307768 -0.4696,-5.444941 1.58903,-0.982084 4.24873,2.531331 3.46412,4.576011 -0.67316,1.75425 -0.68129,1.75661 -2.99452,0.86893 z m -31.501572,2.13031 c 0.73923,-0.29909 2.21327,-0.31729 3.27563,-0.0406 1.06235,0.27683 0.45754,0.52155 -1.34407,0.54381 -1.8016,0.0223 -2.67079,-0.20426 -1.93156,-0.50335 z m -20.6999,-8.195719 c -3.65252,-1.869138 -4.27459,-4.790907 -1.71329,-8.047066 l 2.35818,-2.997957 15.90676,0.593273 c 8.74869,0.326292 16.78778,0.946556 17.86463,1.378358 1.84479,0.739706 1.85078,0.903502 0.10359,2.833935 -1.01978,1.126869 -2.88355,2.064882 -4.14167,2.084494 -1.25811,0.01967 -4.98989,1.030971 -8.29281,2.247472 -11.21547,4.130762 -16.79865,4.61297 -22.08554,1.907491 z m 75.041622,0.176906 c -0.37116,-0.60054 0.30787,-1.091878 1.50893,-1.091878 1.20107,0 2.48742,0.491338 2.85858,1.091878 0.37114,0.600528 -0.30788,1.091875 -1.50894,1.091875 -1.20107,0 -2.48742,-0.491347 -2.85857,-1.091875 z m -18.51057,-7.818419 c -3.20449,-1.460058 -3.66082,-3.093499 -0.87027,-3.115268 1.05093,-0.0076 3.03399,-0.315806 4.4068,-0.683566 2.34828,-0.629075 2.41869,-0.498934 1.18959,2.198665 -1.5187,3.333172 -1.17673,3.217387 -4.72612,1.600169 z M 129.9705,85.31909 c -1.72011,-0.897106 -4.47868,-1.634124 -6.13014,-1.637823 -4.20569,-0.0095 -3.73721,-1.549033 1.09188,-3.588362 2.252,-0.95102 5.38392,-2.575883 6.95983,-3.6108 5.84465,-3.838265 8.88105,2.010574 3.95895,7.625885 -1.3512,1.541503 -2.5234,2.811602 -2.60488,2.822454 -0.0815,0.01019 -1.55553,-0.71426 -3.27564,-1.611354 z M 79.892278,83.674539 c -0.37117,-0.600533 -0.27733,-1.097901 0.20852,-1.105259 0.48584,-0.0074 8.25354,-0.734297 17.26149,-1.615416 19.745212,-1.931379 18.292222,-1.885225 17.470072,-0.55496 -0.37115,0.600532 -3.22538,1.128788 -6.34274,1.173898 -3.11736,0.04512 -9.598692,0.723349 -14.402942,1.5072 -11.24898,1.835351 -13.37257,1.924303 -14.1944,0.594537 z m -11.46475,-0.913272 c 0,-0.835858 7.76145,-2.756969 22.71022,-5.621231 8.1071,-1.553366 26.089832,-1.441302 27.084922,0.168784 0.5372,0.869206 0.18461,1.045317 -1.10331,0.551091 -3.1189,-1.196832 -30.105942,1.235936 -38.318982,3.454297 -9.13822,2.468253 -10.37285,2.64049 -10.37285,1.447059 z m -7.99799,-1.84372 c -0.10506,-0.585522 1.4058,-1.21855 3.35751,-1.406732 2.17381,-0.209591 3.54861,-0.941812 3.54861,-1.889983 0,-0.851313 1.3512,-1.852145 3.00266,-2.224074 1.65147,-0.37193 4.72238,-1.090122 6.82425,-1.595985 3.56964,-0.859113 13.77165,-1.468122 17.47003,-1.042873 0.90081,0.103577 -2.53861,1.049245 -7.64312,2.101483 -10.47956,2.160231 -20.49004,5.05479 -22.92945,6.63011 -1.87422,1.210317 -3.3524,0.977441 -3.63049,-0.571946 z m 1.75649,-6.433017 c 1.07119,-0.812574 6.72167,-3.098776 12.55662,-5.080446 10.2531,-3.482171 11.20238,-3.60421 28.297422,-3.637899 9.72863,-0.01917 18.0542,0.330921 18.50127,0.777987 0.44707,0.447067 -0.20124,1.826939 -1.44068,3.066382 -2.1935,2.193492 -2.62824,2.217021 -16.31753,0.883118 -15.775322,-1.537172 -27.663232,-0.448688 -35.749252,3.273277 -5.5188,2.540278 -8.77778,2.940183 -5.84785,0.717581 z m -5.50298,-0.909867 c 0.2465,-0.750665 1.8843,-1.495114 3.63961,-1.654325 l 3.19142,-0.289475 -2.7297,1.615632 c -3.38063,2.000904 -4.68485,2.105262 -4.10133,0.328168 z m 2.08199,-5.812775 c -0.20985,-0.175287 2.00121,-1.516467 4.91344,-2.980398 8.20615,-4.125071 18.44115,-6.220156 30.38696,-6.220156 5.9169,0 10.475582,-0.282454 10.130372,-0.627674 -0.34521,-0.34522 -5.619542,-0.639485 -11.720712,-0.653923 -6.10114,-0.01443 -10.83447,-0.284784 -10.51849,-0.600768 0.31598,-0.315984 5.63124,-0.931548 11.81167,-1.367919 L 105.00546,54.517646 93.988358,54.355733 c -12.61103,-0.18534 -25.13743,2.470205 -32.7805,6.949333 -6.14182,3.599354 -7.38042,5.707787 -1.6295,2.773893 5.37247,-2.740823 5.94836,-2.231189 0.86677,0.767023 -2.34619,1.384291 -4.83705,1.953463 -7.09721,1.621742 -4.73895,-0.69553 -4.37288,-1.968166 1.08992,-3.789099 8.63189,-2.877301 5.63306,-6.213325 -3.18116,-3.53884 -10.50165,3.186499 -16.67738,1.185217 -16.67738,-5.404405 0,-7.720637 18.07979,-19.637419 33.84823,-22.310104 3.90349,-0.661621 10.29096,-1.755322 14.19443,-2.430446 11.38925,-1.969835 29.063202,-1.365474 37.762662,1.291294 1.85268,0.565797 4.76099,2.482167 6.46292,4.258593 2.63786,2.75333 2.92243,3.607332 1.92876,5.788205 -1.01973,2.238046 -8.3935,6.693512 -15.03582,9.085106 -1.6286,0.586383 -0.84591,0.961313 3.07873,1.474815 8.63207,1.129419 8.89818,5.130842 0.70196,10.554847 -4.1027,2.715037 -4.7857,2.819702 -13.87482,2.126214 -10.242932,-0.781525 -23.788402,1.015274 -30.851322,4.092411 -3.26407,1.422088 -12.36773,1.484104 -14.02999,0.09556 z m 50.266722,-8.854555 c -0.7882,-0.315411 -1.72994,-0.27662 -2.09277,0.08621 -0.36283,0.362823 0.28207,0.620888 1.43308,0.573477 1.27198,-0.05238 1.53071,-0.311121 0.65969,-0.659678 z"
       id="path4946"
       inkscape:connector-curvature="0"
       inkscape:export-xdpi="96"
       inkscape:export-ydpi="96" />
  </g>
</svg>
